# xmcd
# Track frame offsets:
# 182
# 14182
# 27520
# 40950
# 55192
# 69745
# 80645
# 93182
# 106042
# 118532
# 131050
# 145157
# 159607
# 173882
#
# Disc length: 2483 seconds
# Revision: 0
# Processed by: cddbd v1.4PL0 Copyright (c) Steve Scherf et al.
# Submitted via: VisiTrax 2.8.1.130 - For more info visit www.synapsa.com
#
DISCID=c209b10e
DTITLE=Various Artist - Country Blues Bottleneck Guitar Classics, 1926-1937
DYEAR=1900
DGENRE=
TTITLE0=Barbecue Bob - Atlanta Moan
TTITLE1=Weaver and Beasley - Bottleneck Blues
TTITLE2=Willis, Ruth - Man of My Own
TTITLE3=White, Bukka - Panama Limited, The
TTITLE4=Shreveport Home Wreckers - Fence Breakin' Blues
TTITLE5=Johnson, Robert - Milkcow's Calf Blues Take 2
TTITLE6=Black Ace - Black Ace
TTITLE7=Jim and Bob (The Genial Hawaiians) - St. Louis Blues
TTITLE8=Scruggs, Irene - My Back to the Wall
TTITLE9=Kansas Joe and Memphis Minnie - My Wash Woman's Gone
TTITLE10=Woods, Oscar - Evil Hearted Woman Blues
TTITLE11=Jackson, Bo Weavil - Can't Keep No Brown
TTITLE12=Hill, King Solomon - Whoopie Blues
TTITLE13=Ramblin' Thomas - So Lonesome
EXTD=Yazoo 1026
EXTT0=
EXTT1=
EXTT2=
EXTT3=
EXTT4=
EXTT5=
EXTT6=
EXTT7=
EXTT8=
EXTT9=
EXTT10=
EXTT11=
EXTT12=
EXTT13=
PLAYORDER=
